<svg xmlns="http://www.w3.org/2000/svg" viewBox="0 0 80 80" width="80" height="80">
  <defs>
    <radialGradient id="boom" cx="50%" cy="50%" r="50%">
      <stop offset="0%" stop-color="rgba(255,82,82,0.3)"/><stop offset="100%" stop-color="rgba(255,82,82,0)"/>
    </radialGradient>
  </defs>
  <circle cx="40" cy="40" r="30" fill="url(#boom)"/>
  <!-- Burst starburst -->
  <polygon points="40,10 44,28 58,16 48,32 64,28 50,40 66,52 48,48 56,66 40,52 24,66 32,48 14,52 30,40 16,28 32,32 22,16 36,28" fill="#FF5252" opacity="0.7"/>
  <polygon points="40,18 42,30 52,22 46,34 58,32 48,40 58,50 44,46 50,58 40,48 30,58 36,46 22,50 32,40 22,32 34,34 28,22 38,30" fill="#FF1744" opacity="0.5"/>
</svg>
